<?xml version="1.0" encoding="UTF-8" standalone="no"?>
<!-- Created with Inkscape (http://www.inkscape.org/) -->

<svg
   width="305mm"
   height="97mm"
   viewBox="0 0 305 97"
   version="1.1"
   id="svg1"
   xml:space="preserve"
   inkscape:version="1.3 (0e150ed6c4, 2023-07-21)"
   sodipodi:docname="dibujo.svg"
   xmlns:inkscape="http://www.inkscape.org/namespaces/inkscape"
   xmlns:sodipodi="http://sodipodi.sourceforge.net/DTD/sodipodi-0.dtd"
   xmlns="http://www.w3.org/2000/svg"
   xmlns:svg="http://www.w3.org/2000/svg"><sodipodi:namedview
     id="namedview1"
     pagecolor="#ffffff"
     bordercolor="#000000"
     borderopacity="0.25"
     inkscape:showpageshadow="2"
     inkscape:pageopacity="0.0"
     inkscape:pagecheckerboard="0"
     inkscape:deskcolor="#d1d1d1"
     inkscape:document-units="mm"
     inkscape:zoom="0.48907828"
     inkscape:cx="613.39873"
     inkscape:cy="187.08661"
     inkscape:window-width="1366"
     inkscape:window-height="745"
     inkscape:window-x="-8"
     inkscape:window-y="-8"
     inkscape:window-maximized="1"
     inkscape:current-layer="layer1" /><defs
     id="defs1" /><g
     inkscape:label="Capa 1"
     inkscape:groupmode="layer"
     id="layer1"><path
       style="fill:#000000"
       d="m 3.3454969,4.6538926 0.893636,-0.90549 3.8072485,-0.0251 c 4.1345796,-0.0272 5.9595116,0.28443 8.3597926,1.42767 1.585597,0.75521 4.028502,2.85407 4.854118,4.17048 l 0.556637,0.8875304 1.197236,-0.5390504 c 1.729829,-0.77884 3.679813,-0.9273 5.478872,-0.41713 1.2017,0.34078 2.672289,1.2878804 7.287274,4.6932004 3.17996,2.34644 5.917317,4.34754 6.082995,4.44688 0.165688,0.0993 0.99972,-0.18545 1.853413,-0.63287 4.887836,-2.56175 10.454053,0.025 11.558233,5.37128 0.17928,0.86805 0.34092,1.60667 0.35919,1.64138 0.0633,0.12026 50.773938,4.5204 51.172318,4.4402 0.26526,-0.0534 0.98418,-1.86872 2.13214,-5.38374 0.95257,-2.91675 1.92196,-5.67591 2.1542,-6.13147 0.67567,-1.32544 2.87112,-3.14835 4.39975,-3.65318 1.18413,-0.39106 2.69429,-0.46293 10.8574,-0.51669 6.78791,-0.0447 9.67966,0.0261 10.17778,0.24908 1.331,0.5959 1.45603,1.24292 1.49893,7.75732 l 0.0395,5.99259 -0.89364,0.90548 -0.89364,0.9055 -4.39199,0.0289 -4.39199,0.0289 0.0174,2.64577 0.0174,2.64578 4.22079,-0.0278 c 2.7089,-0.0178 4.47004,0.0838 4.91661,0.28373 1.43347,0.64176 1.45318,0.80944 1.53378,13.04886 l 0.0743,11.284142 -0.89364,0.90548 -0.89364,0.90549 -4.39199,0.0289 -4.39199,0.0289 0.0174,2.64578 0.0174,2.64578 4.22079,-0.0278 c 2.7089,-0.0178 4.47004,0.0838 4.91661,0.28372 1.33101,0.5959 1.45603,1.24292 1.49893,7.75732 l 0.0395,5.99259 -0.89364,0.90549 -0.89364,0.90549 -9.65315,0.0636 c -8.32354,0.0548 -9.84342,0.004 -11.03446,-0.37253 -1.53515,-0.48465 -3.75441,-2.27848 -4.44748,-3.59491 -0.23822,-0.45246 -1.24332,-3.19862 -2.23358,-6.10258 -1.45184,-4.25757 -1.89885,-5.29348 -2.30857,-5.34994 -0.50541,-0.0697 -50.934448,4.97853 -51.001918,5.10551 -0.0195,0.0366 -0.17267,0.77864 -0.3405,1.64897 -1.03367,5.3604 -6.565339,8.02019 -11.48649,5.52304 -0.859511,-0.43614 -1.697222,-0.70993 -1.861587,-0.6084 -0.164355,0.10151 -2.87512,2.13849 -6.023902,4.5266 -4.569736,3.46581 -6.027724,4.43219 -7.224832,4.78876 -1.792184,0.53383 -3.743954,0.41107 -5.48389,-0.34493 l -1.204232,-0.52323 -0.5449,0.89477 c -0.802895,1.31846 -3.113016,3.35472 -4.749772,4.18669 -2.391258,1.21551 -4.201056,1.55743 -8.3892646,1.58501 l -3.8072475,0.0251 -0.905485,-0.89363 -0.905494,-0.89365 L 2.7361679,48.738388 2.4518199,5.5593326 Z M 10.26351,88.377215 c 3.846396,-0.0253 6.826706,-1.95005 8.007927,-5.17164 l 0.557077,-1.51934 -0.21766,-33.052337 -0.21766,-33.052345 -0.577039,-1.51187 C 16.592608,10.863933 13.587208,8.9786226 9.7408114,9.0039526 l -1.974407,0.013 0.261349,39.6866354 0.261349,39.686627 z m 14.233459,-6.74683 c 0.628237,1.19552 2.225655,1.67752 3.415531,1.0306 0.315627,-0.1716 3.151511,-2.27597 6.301952,-4.67638 l 5.728074,-4.36437 -0.165461,-25.125722 -0.165461,-25.12573 -5.785056,-4.28856 c -3.181782,-2.3587 -6.045134,-4.42554 -6.362994,-4.59297 -1.184073,-0.62371 -2.7555,-0.13226 -3.409522,1.06629 -0.535618,0.98156 -0.106257,65.031742 0.443137,66.076842 z m 5.480517,-50.692972 c 0.98339,-0.99642 1.835133,-1.14907 3.027283,-0.54249 0.811266,0.41276 1.370538,1.39989 1.377328,2.43098 0.0066,1.0025 -1.55763,2.48494 -2.629476,2.492 -1.176435,0.008 -2.655449,-1.45192 -2.663196,-2.62835 -0.004,-0.61009 0.244114,-1.09965 0.888061,-1.75214 z m 0.06969,10.5831 c 0.98339,-0.99642 1.835133,-1.14906 3.027283,-0.54249 1.341263,0.68243 1.36736,0.91719 1.447022,13.014072 l 0.07414,11.25856 -0.893637,0.90549 c -1.212565,1.22864 -2.263782,1.23556 -3.492424,0.023 l -0.905484,-0.89365 -0.07527,-11.42975 -0.07527,-11.429732 z m 15.563731,32.033162 c 0.637696,1.21352 2.120141,1.64982 3.473628,1.02235 1.499096,-0.695 1.449899,0.31247 1.275796,-26.125612 -0.12057,-18.30887 -0.239729,-24.51325 -0.48095,-25.03348 -0.836967,-1.80533 -3.635759,-1.84509 -4.606881,-0.0654 -0.534264,0.97909 -0.20949,49.159562 0.338598,50.202192 z m 10.276972,-6.90862 c 0.0638,-4.2e-4 11.44748,-1.14698 25.29715,-2.54789 13.849657,-1.40092 25.220191,-2.54738 25.267831,-2.5477 0.0476,-3.1e-4 0.0466,-6.07263 -0.002,-13.494012 -0.0489,-7.4214 -0.12786,-13.49321 -0.17546,-13.49289 -0.0476,3.1e-4 -11.432284,-0.9963 -25.299191,-2.2147 -13.86692,-1.2184 -25.26475,-2.21493 -25.32851,-2.21451 -0.0638,4.2e-4 -0.0618,8.2159 0.004,18.25662 0.0661,10.040702 0.17242,18.255502 0.23616,18.255082 z m 58.004701,2.92526 c 1.66381,4.93192 2.19471,6.20786 2.8271,6.79468 l 0.77862,0.72248 7.80086,-0.0514 7.80086,-0.0514 -0.0174,-2.64577 -0.0174,-2.64577 -4.39199,0.0289 -4.39199,0.0289 -0.90548,-0.89365 -0.9055,-0.89363 -0.0404,-6.1382 -0.0404,-6.13821 0.89365,-0.90548 0.89363,-0.90548 4.39199,-0.0289 4.39199,-0.0289 -0.0523,-7.937322 -0.0523,-7.93733 -4.39199,0.0289 -4.39199,0.0289 -0.90548,-0.89364 -0.90549,-0.89364 -0.0404,-6.1382 -0.0404,-6.1382 0.89365,-0.90549 0.89363,-0.90549 4.39199,-0.0289 4.39199,-0.0289 -0.0174,-2.64578 -0.0174,-2.64577 -7.79028,0.0513 -7.79028,0.0513 -0.72744,0.6341 c -0.58403,0.50909 -1.12181,1.82966 -2.72796,6.69884 l -2.00052,6.06473 0.0819,15.6101 0.0819,15.610082 z"
       id="path1" /><text
       xml:space="preserve"
       style="font-size:70.5556px;line-height:0;fill:#000000;stroke-width:0.449908"
       x="138.07721"
       y="80.878235"
       id="text1"><tspan
         sodipodi:role="line"
         x="138.07721"
         y="80.878235"
         style="font-style:normal;font-variant:normal;font-weight:normal;font-stretch:normal;font-size:70.5556px;line-height:0;font-family:'Agency FB';-inkscape-font-specification:'Agency FB';stroke-width:0.449908;fill:#000000"
         id="tspan2">sbel  ez</tspan></text><path
       style="fill:#000000;stroke-width:0.896042"
       d="m 231.90157,82.528311 -0.82929,-0.17451 c -2.80126,-0.58945 -4.56074,-4.13437 -3.68758,-7.42959 0.36783,-1.38817 1.55512,-2.92598 2.66759,-3.45514 0.51833,-0.24655 0.94158,-0.58093 0.94054,-0.74306 -8e-4,-0.16213 -0.33423,-2.91416 -0.74042,-6.11562 -0.40619,-3.20146 -0.73993,-5.96966 -0.74163,-6.15156 -0.001,-0.19752 -0.28764,-0.33073 -0.70955,-0.33073 -1.48807,0 -2.2094,-2.30462 -1.07054,-3.42037 0.30784,-0.3016 0.67543,-0.54837 0.81685,-0.54837 0.18223,0 0.25123,-0.64103 0.2369,-2.20069 -0.0187,-2.03659 0.0255,-2.27548 0.5924,-3.2038 0.98433,-1.61173 1.92719,-1.99125 4.96368,-1.99803 l 2.60229,-0.006 v -2.11667 -2.11667 l -1.00906,-0.006 c -1.3101,-0.007 -2.62045,-0.76371 -3.26059,-1.881585 -0.45181,-0.789007 -0.51819,-1.229509 -0.58125,-3.857336 -0.0635,-2.646375 -0.0219,-3.074786 0.38613,-3.96875 0.6547,-1.434657 1.34475,-1.962578 2.98603,-2.284464 l 1.44378,-0.283148 0.13823,-1.201639 c 0.19951,-1.734348 0.87099,-3.315654 1.85206,-4.361571 3.36521,-3.587664 8.35269,-1.156067 8.99044,4.383215 l 0.14084,1.223283 1.18139,0.172938 c 1.67761,0.245573 2.52659,0.829736 3.15888,2.173538 0.50955,1.082961 0.53789,1.33168 0.47072,4.132759 -0.0633,2.642218 -0.12935,3.08153 -0.58152,3.871175 -0.64014,1.117875 -1.9505,1.874045 -3.2606,1.881585 l -1.00905,0.006 v 2.11667 2.11667 l 2.60229,0.006 c 3.03685,0.007 3.97962,0.38639 4.96368,1.99863 0.56983,0.93356 0.61044,1.15745 0.58113,3.2038 -0.0232,1.61692 0.0397,2.20009 0.23689,2.20009 0.14762,0 0.52028,0.24677 0.82813,0.54837 1.15326,1.12986 0.41641,3.42037 -1.10031,3.42037 -0.3981,0 -0.67798,0.13616 -0.67979,0.33073 -10e-4,0.1819 -0.33543,2.9501 -0.74162,6.15156 -0.40619,3.20146 -0.73938,5.95349 -0.74043,6.11562 -8e-4,0.16213 0.42221,0.49651 0.94055,0.74306 0.51834,0.24656 1.27156,0.90201 1.67381,1.45657 2.44469,3.37031 0.94787,8.66186 -2.66524,9.42215 l -4.01683,0.12199 h -7.42032 -7.42031 z m 22.24824,-4.55645 c 0.51612,-0.64283 0.55017,-1.77025 0.0734,-2.42656 -0.33225,-0.45728 -0.97624,-0.48387 -11.72011,-0.48387 -10.28043,0 -11.40572,0.0419 -11.75702,0.4379 -0.51256,0.57774 -0.49441,1.81143 0.0364,2.47253 0.41418,0.51585 0.7081,0.52917 11.68372,0.52917 10.97563,0 11.26956,-0.0133 11.68373,-0.52917 z m -2.7982,-12.36928 c 0.37407,-3.01956 0.73903,-5.93659 0.81102,-6.48229 l 0.13088,-0.99219 h -9.82744 -9.82743 l 0.13089,0.99219 c 0.072,0.5457 0.43694,3.46273 0.81101,6.48229 l 0.68013,5.4901 h 8.2054 8.20542 z m 1.62017,-12.89382 c 0.08,-0.79783 0.0854,-1.57174 0.0119,-1.71979 -0.18445,-0.37171 -20.85085,-0.37171 -21.03529,0 -0.0735,0.14805 -0.0681,0.92196 0.0119,1.71979 l 0.14551,1.4506 h 10.36019 10.36019 z m -8.16896,-9.44641 c 0,-3.217761 0.0359,-3.536232 0.4619,-4.101044 0.41905,-0.555577 0.64643,-0.612365 2.4519,-0.612365 h 1.99 l -0.0621,-2.050521 -0.0621,-2.05052 -2.08905,-0.132292 c -2.56747,-0.16259 -2.69066,-0.304811 -2.69066,-3.106417 0,-1.222786 -0.11985,-2.235624 -0.32224,-2.723077 -0.34716,-0.836123 -1.29482,-1.578839 -2.01452,-1.578839 -0.71968,0 -1.66734,0.742716 -2.01449,1.578839 -0.20239,0.487453 -0.32224,1.500291 -0.32224,2.723077 0,2.801606 -0.12318,2.943827 -2.69067,3.106417 l -2.08904,0.132292 -0.0621,2.05052 -0.0621,2.050521 h 1.96023 c 1.72025,0 2.02043,0.07043 2.4519,0.575287 0.46622,0.545522 0.49166,0.757711 0.49166,4.101042 v 3.52575 h 2.33675 2.33674 z"
       id="path3"
       sodipodi:nodetypes="cssscscssssscccccsscscssscssssccccsssssscscssccccccsssssccsscccsscccscsscccccccscccssssssscccssscccc" /></g></svg>
